<svg fill="#e35028" xmlns="http://www.w3.org/2000/svg" width="128.042" height="114.043" viewBox="0 0 128.042 114.043"><g fill-rule="evenodd" clip-rule="evenodd"><path d="M51.993 114.043h-4.999L0 60.05v-4.999c5.408-5.388 10.779-10.815 16.238-16.152 4.448-4.35 7.695-4.26 11.768.401 6.347 7.264 12.654 14.565 18.827 21.977 1.9 2.282 2.987 2.783 5.171.133C68.913 40.888 85.974 20.493 102.987.058h4.999c7.063 6.269 13.781 12.883 19.998 19.998v4.999c-9.925 11.595-19.861 23.18-29.771 34.789-15.416 18.056-30.814 36.132-46.22 54.199z"/><path d="M127.984 20.055C121.767 12.94 115.048 6.326 107.986.057c5.999 0 12 .088 17.996-.055 1.74-.042 2.098.315 2.057 2.056-.143 5.997-.055 11.998-.055 17.997z"/></g></svg>